<svg version="1.1" xmlns="http://www.w3.org/2000/svg" xmlns:xlink="http://www.w3.org/1999/xlink" width="595" height="707"><defs/><g><g transform="translate(-94,-38) scale(1,1)"><rect fill="#C0C0C0" stroke="none" x="287" y="55" width="119" height="175" opacity="0.2"/></g><g transform="translate(-94,-38) scale(1,1)"><rect fill="#ffffff" stroke="none" x="280" y="48" width="119" height="175"/></g><g transform="translate(-94,-38) scale(1,1)"><path fill="none" stroke="#000000" d="M 280 48 L 399 48 L 399 223 L 280 223 L 280 48 Z Z" stroke-miterlimit="10"/></g><g transform="translate(-94,-38) scale(1,1)"><path fill="none" stroke="#000000" d="M 280 73 L 399 73" stroke-miterlimit="10"/></g><g transform="translate(-94,-38) scale(1,1)"><path fill="none" stroke="#000000" d="M 280 111 L 399 111" stroke-miterlimit="10"/></g><g transform="translate(-94,-38) scale(1,1)"><g><path fill="none" stroke="none"/><text fill="#000000" stroke="none" font-family="Arial" font-size="13px" font-style="normal" font-weight="bold" text-decoration="none" x="326" y="67.5">User</text></g></g><g transform="translate(-94,-38) scale(1,1)"><g><path fill="none" stroke="none"/><text fill="#000000" stroke="none" font-family="Arial" font-size="13px" font-style="normal" font-weight="normal" text-decoration="none" x="285" y="90.5">+id</text></g></g><g transform="translate(-94,-38) scale(1,1)"><g><path fill="none" stroke="none"/><text fill="#000000" stroke="none" font-family="Arial" font-size="13px" font-style="normal" font-weight="normal" text-decoration="none" x="285" y="105.5">+name</text></g></g><g transform="translate(-94,-38) scale(1,1)"><rect fill="#C0C0C0" stroke="none" x="519" y="279" width="167" height="207" opacity="0.2"/></g><g transform="translate(-94,-38) scale(1,1)"><rect fill="#ffffff" stroke="none" x="512" y="272" width="167" height="207"/></g><g transform="translate(-94,-38) scale(1,1)"><path fill="none" stroke="#000000" d="M 512 272 L 679 272 L 679 479 L 512 479 L 512 272 Z Z" stroke-miterlimit="10"/></g><g transform="translate(-94,-38) scale(1,1)"><path fill="none" stroke="#000000" d="M 512 297 L 679 297" stroke-miterlimit="10"/></g><g transform="translate(-94,-38) scale(1,1)"><path fill="none" stroke="#000000" d="M 512 335 L 679 335" stroke-miterlimit="10"/></g><g transform="translate(-94,-38) scale(1,1)"><g><path fill="none" stroke="none"/><text fill="#000000" stroke="none" font-family="Arial" font-size="13px" font-style="normal" font-weight="bold" text-decoration="none" x="564.5" y="291.5">Categories</text></g></g><g transform="translate(-94,-38) scale(1,1)"><g><path fill="none" stroke="none"/><text fill="#000000" stroke="none" font-family="Arial" font-size="13px" font-style="normal" font-weight="normal" text-decoration="none" x="517" y="314.5">+id</text></g></g><g transform="translate(-94,-38) scale(1,1)"><g><path fill="none" stroke="none"/><text fill="#000000" stroke="none" font-family="Arial" font-size="13px" font-style="normal" font-weight="normal" text-decoration="none" x="517" y="329.5">+name</text></g></g><g transform="translate(-94,-38) scale(1,1)"><rect fill="#C0C0C0" stroke="none" x="279" y="303" width="143" height="167" opacity="0.2"/></g><g transform="translate(-94,-38) scale(1,1)"><rect fill="#ffffff" stroke="none" x="272" y="296" width="143" height="167"/></g><g transform="translate(-94,-38) scale(1,1)"><path fill="none" stroke="#000000" d="M 272 296 L 415 296 L 415 463 L 272 463 L 272 296 Z Z" stroke-miterlimit="10"/></g><g transform="translate(-94,-38) scale(1,1)"><path fill="none" stroke="#000000" d="M 272 321 L 415 321" stroke-miterlimit="10"/></g><g transform="translate(-94,-38) scale(1,1)"><path fill="none" stroke="#000000" d="M 272 359 L 415 359" stroke-miterlimit="10"/></g><g transform="translate(-94,-38) scale(1,1)"><g><path fill="none" stroke="none"/><text fill="#000000" stroke="none" font-family="Arial" font-size="13px" font-style="normal" font-weight="bold" text-decoration="none" x="325" y="315.5">Article</text></g></g><g transform="translate(-94,-38) scale(1,1)"><g><path fill="none" stroke="none"/><text fill="#000000" stroke="none" font-family="Arial" font-size="13px" font-style="normal" font-weight="normal" text-decoration="none" x="277" y="338.5">+id</text></g></g><g transform="translate(-94,-38) scale(1,1)"><g><path fill="none" stroke="none"/><text fill="#000000" stroke="none" font-family="Arial" font-size="13px" font-style="normal" font-weight="normal" text-decoration="none" x="277" y="353.5">+name</text></g></g><g transform="translate(-94,-38) scale(1,1)"><path fill="none" stroke="#000000" d="M 416 378 L 511 376" stroke-miterlimit="10"/></g><g transform="translate(-94,-38) scale(1,1)"><g><path fill="none" stroke="none"/><text fill="#000000" stroke="none" font-family="Arial" font-size="13px" font-style="normal" font-weight="normal" text-decoration="none" x="426.5" y="396.5">0..*</text></g></g><g transform="translate(-94,-38) scale(1,1)"><g><path fill="none" stroke="none"/><text fill="#000000" stroke="none" font-family="Arial" font-size="13px" font-style="normal" font-weight="normal" text-decoration="none" x="478.5" y="394.5">0..*</text></g></g><g transform="translate(-94,-38) scale(1,1)"><rect fill="#C0C0C0" stroke="none" x="351" y="583" width="143" height="159" opacity="0.2"/></g><g transform="translate(-94,-38) scale(1,1)"><rect fill="#ffffff" stroke="none" x="344" y="576" width="143" height="159"/></g><g transform="translate(-94,-38) scale(1,1)"><path fill="none" stroke="#000000" d="M 344 576 L 487 576 L 487 735 L 344 735 L 344 576 Z Z" stroke-miterlimit="10"/></g><g transform="translate(-94,-38) scale(1,1)"><path fill="none" stroke="#000000" d="M 344 601 L 487 601" stroke-miterlimit="10"/></g><g transform="translate(-94,-38) scale(1,1)"><path fill="none" stroke="#000000" d="M 344 639 L 487 639" stroke-miterlimit="10"/></g><g transform="translate(-94,-38) scale(1,1)"><g><path fill="none" stroke="none"/><text fill="#000000" stroke="none" font-family="Arial" font-size="13px" font-style="normal" font-weight="bold" text-decoration="none" x="400" y="595.5">video</text></g></g><g transform="translate(-94,-38) scale(1,1)"><g><path fill="none" stroke="none"/><text fill="#000000" stroke="none" font-family="Arial" font-size="13px" font-style="normal" font-weight="normal" text-decoration="none" x="349" y="618.5">+id</text></g></g><g transform="translate(-94,-38) scale(1,1)"><g><path fill="none" stroke="none"/><text fill="#000000" stroke="none" font-family="Arial" font-size="13px" font-style="normal" font-weight="normal" text-decoration="none" x="349" y="633.5">+name</text></g></g><g transform="translate(-94,-38) scale(1,1)"><path fill="none" stroke="#000000" d="M 394 575 L 365 464" stroke-miterlimit="10"/></g><g transform="translate(-94,-38) scale(1,1)"><g><path fill="none" stroke="none"/><text fill="#000000" stroke="none" font-family="Arial" font-size="13px" font-style="normal" font-weight="normal" text-decoration="none" x="389.5" y="556.5">0..*</text></g></g><g transform="translate(-94,-38) scale(1,1)"><g><path fill="none" stroke="none"/><text fill="#000000" stroke="none" font-family="Arial" font-size="13px" font-style="normal" font-weight="normal" text-decoration="none" x="371.5" y="487.5">0..*</text></g></g><g transform="translate(-94,-38) scale(1,1)"><rect fill="#C0C0C0" stroke="none" x="111" y="295" width="79" height="103" opacity="0.2"/></g><g transform="translate(-94,-38) scale(1,1)"><rect fill="#ffffff" stroke="none" x="104" y="288" width="79" height="103"/></g><g transform="translate(-94,-38) scale(1,1)"><path fill="none" stroke="#000000" d="M 104 288 L 183 288 L 183 391 L 104 391 L 104 288 Z Z" stroke-miterlimit="10"/></g><g transform="translate(-94,-38) scale(1,1)"><path fill="none" stroke="#000000" d="M 104 313 L 183 313" stroke-miterlimit="10"/></g><g transform="translate(-94,-38) scale(1,1)"><path fill="none" stroke="#000000" d="M 104 351 L 183 351" stroke-miterlimit="10"/></g><g transform="translate(-94,-38) scale(1,1)"><g><path fill="none" stroke="none"/><text fill="#000000" stroke="none" font-family="Arial" font-size="13px" font-style="normal" font-weight="bold" text-decoration="none" x="131" y="307.5">tags</text></g></g><g transform="translate(-94,-38) scale(1,1)"><g><path fill="none" stroke="none"/><text fill="#000000" stroke="none" font-family="Arial" font-size="13px" font-style="normal" font-weight="normal" text-decoration="none" x="109" y="330.5">+id</text></g></g><g transform="translate(-94,-38) scale(1,1)"><g><path fill="none" stroke="none"/><text fill="#000000" stroke="none" font-family="Arial" font-size="13px" font-style="normal" font-weight="normal" text-decoration="none" x="109" y="345.5">+name</text></g></g><g transform="translate(-94,-38) scale(1,1)"><path fill="none" stroke="#000000" d="M 184 347 L 271 365" stroke-miterlimit="10"/></g><g transform="translate(-94,-38) scale(1,1)"><g><path fill="none" stroke="none"/><text fill="#000000" stroke="none" font-family="Arial" font-size="13px" font-style="normal" font-weight="normal" text-decoration="none" x="191.5" y="369.5">0..*</text></g></g><g transform="translate(-94,-38) scale(1,1)"><g><path fill="none" stroke="none"/><text fill="#000000" stroke="none" font-family="Arial" font-size="13px" font-style="normal" font-weight="normal" text-decoration="none" x="236.5" y="378.5">0..*</text></g></g></g></svg>