<svg version="1.1" xmlns="http://www.w3.org/2000/svg" xmlns:xlink="http://www.w3.org/1999/xlink" width="683" height="817"><defs/><g><g transform="translate(-134,2) scale(1,1)"><path fill="#ffffff" stroke="none" d="M 171.66 537.85 C 171.66 532.96227952 175.61780236799999 529 180.5 529 C 185.38219763200001 529 189.34 532.96227952 189.34 537.85 C 189.34 542.73772048 185.38219763200001 546.7 180.5 546.7 C 175.61780236799999 546.7 171.66 542.73772048 171.66 537.85 Z"/></g><g transform="translate(-134,2) scale(1,1)"><path fill="none" stroke="#000000" d="M 171.66 537.85 C 171.66 532.96227952 175.61780236799999 529 180.5 529 C 185.38219763200001 529 189.34 532.96227952 189.34 537.85 C 189.34 542.73772048 185.38219763200001 546.7 180.5 546.7 C 175.61780236799999 546.7 171.66 542.73772048 171.66 537.85 Z" stroke-miterlimit="10"/></g><g transform="translate(-134,2) scale(1,1)"><path fill="none" stroke="#000000" d="M 180.5 546.7 L 180.5 564.3" stroke-miterlimit="10"/></g><g transform="translate(-134,2) scale(1,1)"><path fill="none" stroke="#000000" d="M 171.14 553.3 L 189.86 553.3" stroke-miterlimit="10"/></g><g transform="translate(-134,2) scale(1,1)"><path fill="none" stroke="#000000" d="M 180.5 564.3 L 167.5 582" stroke-miterlimit="10"/></g><g transform="translate(-134,2) scale(1,1)"><path fill="none" stroke="#000000" d="M 180.5 564.3 L 193.5 582" stroke-miterlimit="10"/></g><g transform="translate(-134,2) scale(1,1)"><g><path fill="none" stroke="none"/><text fill="#000000" stroke="none" font-family="Arial" font-size="13px" font-style="normal" font-weight="bold" text-decoration="none" x="151" y="602.5">Apprenant</text></g></g><g transform="translate(-134,2) scale(1,1)"><path fill="#C0C0C0" stroke="none" d="M 391 58.5 C 391 34.4756112 442.93496319999997 15 507 15 C 571.0650368 15 623 34.4756112 623 58.5 C 623 82.5243888 571.0650368 102 507 102 C 442.93496319999997 102 391 82.5243888 391 58.5 Z" opacity="0.2"/></g><g transform="translate(-134,2) scale(1,1)"><path fill="#ffffff" stroke="none" d="M 384 51.5 C 384 27.4756112 435.93496319999997 8 500 8 C 564.0650368 8 616 27.4756112 616 51.5 C 616 75.5243888 564.0650368 95 500 95 C 435.93496319999997 95 384 75.5243888 384 51.5 Z"/></g><g transform="translate(-134,2) scale(1,1)"><path fill="none" stroke="#000000" d="M 384 51.5 C 384 27.4756112 435.93496319999997 8 500 8 C 564.0650368 8 616 27.4756112 616 51.5 C 616 75.5243888 564.0650368 95 500 95 C 435.93496319999997 95 384 75.5243888 384 51.5 Z" stroke-miterlimit="10"/></g><g transform="translate(-134,2) scale(1,1)"><g><path fill="none" stroke="none"/><text fill="#000000" stroke="none" font-family="Arial" font-size="13px" font-style="normal" font-weight="bold" text-decoration="none" x="463" y="58.5">C.U.D Listes</text></g></g><g transform="translate(-134,2) scale(1,1)"><path fill="#C0C0C0" stroke="none" d="M 391 158.5 C 391 134.4756112 442.93496319999997 115 507 115 C 571.0650368 115 623 134.4756112 623 158.5 C 623 182.5243888 571.0650368 202 507 202 C 442.93496319999997 202 391 182.5243888 391 158.5 Z" opacity="0.2"/></g><g transform="translate(-134,2) scale(1,1)"><path fill="#ffffff" stroke="none" d="M 384 151.5 C 384 127.4756112 435.93496319999997 108 500 108 C 564.0650368 108 616 127.4756112 616 151.5 C 616 175.5243888 564.0650368 195 500 195 C 435.93496319999997 195 384 175.5243888 384 151.5 Z"/></g><g transform="translate(-134,2) scale(1,1)"><path fill="none" stroke="#000000" d="M 384 151.5 C 384 127.4756112 435.93496319999997 108 500 108 C 564.0650368 108 616 127.4756112 616 151.5 C 616 175.5243888 564.0650368 195 500 195 C 435.93496319999997 195 384 175.5243888 384 151.5 Z" stroke-miterlimit="10"/></g><g transform="translate(-134,2) scale(1,1)"><g><path fill="none" stroke="none"/><text fill="#000000" stroke="none" font-family="Arial" font-size="13px" font-style="normal" font-weight="bold" text-decoration="none" x="461.5" y="158.5">C.U.D Cartes</text></g></g><g transform="translate(-134,2) scale(1,1)"><path fill="#C0C0C0" stroke="none" d="M 391 768.5 C 391 744.4756112 442.93496319999997 725 507 725 C 571.0650368 725 623 744.4756112 623 768.5 C 623 792.5243888 571.0650368 812 507 812 C 442.93496319999997 812 391 792.5243888 391 768.5 Z" opacity="0.2"/></g><g transform="translate(-134,2) scale(1,1)"><path fill="#ffffff" stroke="none" d="M 384 761.5 C 384 737.4756112 435.93496319999997 718 500 718 C 564.0650368 718 616 737.4756112 616 761.5 C 616 785.5243888 564.0650368 805 500 805 C 435.93496319999997 805 384 785.5243888 384 761.5 Z"/></g><g transform="translate(-134,2) scale(1,1)"><path fill="none" stroke="#000000" d="M 384 761.5 C 384 737.4756112 435.93496319999997 718 500 718 C 564.0650368 718 616 737.4756112 616 761.5 C 616 785.5243888 564.0650368 805 500 805 C 435.93496319999997 805 384 785.5243888 384 761.5 Z" stroke-miterlimit="10"/></g><g transform="translate(-134,2) scale(1,1)"><g><path fill="none" stroke="none"/><text fill="#000000" stroke="none" font-family="Arial" font-size="13px" font-style="normal" font-weight="bold" text-decoration="none" x="444.5" y="762">Se supprimer d'une</text><text fill="#000000" stroke="none" font-family="Arial" font-size="13px" font-style="normal" font-weight="bold" text-decoration="none" x="485.5" y="775">carte</text></g></g><g transform="translate(-134,2) scale(1,1)"><path fill="#C0C0C0" stroke="none" d="M 391 572.5 C 391 548.4756112 442.93496319999997 529 507 529 C 571.0650368 529 623 548.4756112 623 572.5 C 623 596.5243888 571.0650368 616 507 616 C 442.93496319999997 616 391 596.5243888 391 572.5 Z" opacity="0.2"/></g><g transform="translate(-134,2) scale(1,1)"><path fill="#ffffff" stroke="none" d="M 384 565.5 C 384 541.4756112 435.93496319999997 522 500 522 C 564.0650368 522 616 541.4756112 616 565.5 C 616 589.5243888 564.0650368 609 500 609 C 435.93496319999997 609 384 589.5243888 384 565.5 Z"/></g><g transform="translate(-134,2) scale(1,1)"><path fill="none" stroke="#000000" d="M 384 565.5 C 384 541.4756112 435.93496319999997 522 500 522 C 564.0650368 522 616 541.4756112 616 565.5 C 616 589.5243888 564.0650368 609 500 609 C 435.93496319999997 609 384 589.5243888 384 565.5 Z" stroke-miterlimit="10"/></g><g transform="translate(-134,2) scale(1,1)"><g><path fill="none" stroke="none"/><text fill="#000000" stroke="none" font-family="Arial" font-size="13px" font-style="normal" font-weight="bold" text-decoration="none" x="440.5" y="572.5">S'ajouter à une carte</text></g></g><g transform="translate(-134,2) scale(1,1)"><path fill="#C0C0C0" stroke="none" d="M 391 670.5 C 391 646.4756112 442.93496319999997 627 507 627 C 571.0650368 627 623 646.4756112 623 670.5 C 623 694.5243888 571.0650368 714 507 714 C 442.93496319999997 714 391 694.5243888 391 670.5 Z" opacity="0.2"/></g><g transform="translate(-134,2) scale(1,1)"><path fill="#ffffff" stroke="none" d="M 384 663.5 C 384 639.4756112 435.93496319999997 620 500 620 C 564.0650368 620 616 639.4756112 616 663.5 C 616 687.5243888 564.0650368 707 500 707 C 435.93496319999997 707 384 687.5243888 384 663.5 Z"/></g><g transform="translate(-134,2) scale(1,1)"><path fill="none" stroke="#000000" d="M 384 663.5 C 384 639.4756112 435.93496319999997 620 500 620 C 564.0650368 620 616 639.4756112 616 663.5 C 616 687.5243888 564.0650368 707 500 707 C 435.93496319999997 707 384 687.5243888 384 663.5 Z" stroke-miterlimit="10"/></g><g transform="translate(-134,2) scale(1,1)"><g><path fill="none" stroke="none"/><text fill="#000000" stroke="none" font-family="Arial" font-size="13px" font-style="normal" font-weight="bold" text-decoration="none" x="440" y="670.5">Déplacer mes cartes</text></g></g><g transform="translate(-134,2) scale(1,1)"><path fill="#C0C0C0" stroke="none" d="M 391 378.5 C 391 354.4756112 442.93496319999997 335 507 335 C 571.0650368 335 623 354.4756112 623 378.5 C 623 402.5243888 571.0650368 422 507 422 C 442.93496319999997 422 391 402.5243888 391 378.5 Z" opacity="0.2"/></g><g transform="translate(-134,2) scale(1,1)"><path fill="#ffffff" stroke="none" d="M 384 371.5 C 384 347.4756112 435.93496319999997 328 500 328 C 564.0650368 328 616 347.4756112 616 371.5 C 616 395.5243888 564.0650368 415 500 415 C 435.93496319999997 415 384 395.5243888 384 371.5 Z"/></g><g transform="translate(-134,2) scale(1,1)"><path fill="none" stroke="#000000" d="M 384 371.5 C 384 347.4756112 435.93496319999997 328 500 328 C 564.0650368 328 616 347.4756112 616 371.5 C 616 395.5243888 564.0650368 415 500 415 C 435.93496319999997 415 384 395.5243888 384 371.5 Z" stroke-miterlimit="10"/></g><g transform="translate(-134,2) scale(1,1)"><g><path fill="none" stroke="none"/><text fill="#000000" stroke="none" font-family="Arial" font-size="13px" font-style="normal" font-weight="bold" text-decoration="none" x="447.5" y="372">Voir le board de la</text><text fill="#000000" stroke="none" font-family="Arial" font-size="13px" font-style="normal" font-weight="bold" text-decoration="none" x="482" y="385">promo</text></g></g><g transform="translate(-134,2) scale(1,1)"><path fill="#C0C0C0" stroke="none" d="M 391 258.5 C 391 234.4756112 442.93496319999997 215 507 215 C 571.0650368 215 623 234.4756112 623 258.5 C 623 282.5243888 571.0650368 302 507 302 C 442.93496319999997 302 391 282.5243888 391 258.5 Z" opacity="0.2"/></g><g transform="translate(-134,2) scale(1,1)"><path fill="#ffffff" stroke="none" d="M 384 251.5 C 384 227.4756112 435.93496319999997 208 500 208 C 564.0650368 208 616 227.4756112 616 251.5 C 616 275.5243888 564.0650368 295 500 295 C 435.93496319999997 295 384 275.5243888 384 251.5 Z"/></g><g transform="translate(-134,2) scale(1,1)"><path fill="none" stroke="#787878" d="M 384 251.5 C 384 227.4756112 435.93496319999997 208 500 208 C 564.0650368 208 616 227.4756112 616 251.5 C 616 275.5243888 564.0650368 295 500 295 C 435.93496319999997 295 384 275.5243888 384 251.5 Z" stroke-miterlimit="10"/></g><g transform="translate(-134,2) scale(1,1)"><g><path fill="none" stroke="none"/><text fill="#989898" stroke="none" font-family="Arial" font-size="13px" font-style="normal" font-weight="bold" text-decoration="none" x="466" y="258.5">Invite users</text></g></g><g transform="translate(-134,2) scale(1,1)"><path fill="none" stroke="#000000" d="M 218 140 L 383 88" stroke-miterlimit="10"/></g><g transform="translate(-134,2) scale(1,1)"><path fill="none" stroke="#000000" d="M 218 152 L 383 151" stroke-miterlimit="10"/></g><g transform="translate(-134,2) scale(1,1)"><path fill="none" stroke="#939393" d="M 218 164 L 383 215" stroke-miterlimit="10"/></g><g transform="translate(-134,2) scale(1,1)"><path fill="none" stroke="#000000" d="M 218 579 L 383 628" stroke-miterlimit="10"/></g><g transform="translate(-134,2) scale(1,1)"><path fill="none" stroke="#000000" d="M 218 545 L 427 416" stroke-miterlimit="10"/></g><g transform="translate(-134,2) scale(1,1)"><path fill="none" stroke="#000000" d="M 218 568 L 383 566" stroke-miterlimit="10"/></g><g transform="translate(-134,2) scale(1,1)"><path fill="none" stroke="#000000" d="M 218 591 L 427 717" stroke-miterlimit="10"/></g><g transform="translate(-134,2) scale(1,1)"><path fill="#ffffff" stroke="none" d="M 171.66 121.85 C 171.66 116.96227952 175.61780236799999 113 180.5 113 C 185.38219763200001 113 189.34 116.96227952 189.34 121.85 C 189.34 126.73772048 185.38219763200001 130.7 180.5 130.7 C 175.61780236799999 130.7 171.66 126.73772048 171.66 121.85 Z"/></g><g transform="translate(-134,2) scale(1,1)"><path fill="none" stroke="#000000" d="M 171.66 121.85 C 171.66 116.96227952 175.61780236799999 113 180.5 113 C 185.38219763200001 113 189.34 116.96227952 189.34 121.85 C 189.34 126.73772048 185.38219763200001 130.7 180.5 130.7 C 175.61780236799999 130.7 171.66 126.73772048 171.66 121.85 Z" stroke-miterlimit="10"/></g><g transform="translate(-134,2) scale(1,1)"><path fill="none" stroke="#000000" d="M 180.5 130.7 L 180.5 148.3" stroke-miterlimit="10"/></g><g transform="translate(-134,2) scale(1,1)"><path fill="none" stroke="#000000" d="M 171.14 137.3 L 189.86 137.3" stroke-miterlimit="10"/></g><g transform="translate(-134,2) scale(1,1)"><path fill="none" stroke="#000000" d="M 180.5 148.3 L 167.5 166" stroke-miterlimit="10"/></g><g transform="translate(-134,2) scale(1,1)"><path fill="none" stroke="#000000" d="M 180.5 148.3 L 193.5 166" stroke-miterlimit="10"/></g><g transform="translate(-134,2) scale(1,1)"><g><path fill="none" stroke="none"/><text fill="#000000" stroke="none" font-family="Arial" font-size="13px" font-style="normal" font-weight="bold" text-decoration="none" x="151" y="186.5">Formateur</text></g></g><g transform="translate(-134,2) scale(1,1)"><path fill="none" stroke="#000000" d="M 180 193 L 180 527" stroke-miterlimit="10"/></g><g transform="translate(-134,2) scale(1,1)"><path fill="#FFFFFF" stroke="none" d="M 171.58096448796803 506.6746502847517 L 180 527 L 188.41903551203197 506.6746502847517"/></g><g transform="translate(-134,2) scale(1,1)"><path fill="none" stroke="#000000" d="M 171.58096448796803 506.6746502847517 L 180 527 L 188.41903551203197 506.6746502847517 L 171.58096448796803 506.6746502847517" stroke-miterlimit="10"/></g><g transform="translate(-134,2) scale(1,1)"><path fill="#ffffff" stroke="none" d="M 748.2490909090909 220.4 C 748.2490909090909 214.10395328 753.2862939229091 209 759.5 209 C 765.7137060770909 209 770.7509090909091 214.10395328 770.7509090909091 220.4 C 770.7509090909091 226.69604672 765.7137060770909 231.8 759.5 231.8 C 753.2862939229091 231.8 748.2490909090909 226.69604672 748.2490909090909 220.4 Z"/></g><g transform="translate(-134,2) scale(1,1)"><path fill="none" stroke="#000000" d="M 748.2490909090909 220.4 C 748.2490909090909 214.10395328 753.2862939229091 209 759.5 209 C 765.7137060770909 209 770.7509090909091 214.10395328 770.7509090909091 220.4 C 770.7509090909091 226.69604672 765.7137060770909 231.8 759.5 231.8 C 753.2862939229091 231.8 748.2490909090909 226.69604672 748.2490909090909 220.4 Z" stroke-miterlimit="10"/></g><g transform="translate(-134,2) scale(1,1)"><path fill="none" stroke="#000000" d="M 759.5 231.8 L 759.5 254.2" stroke-miterlimit="10"/></g><g transform="translate(-134,2) scale(1,1)"><path fill="none" stroke="#000000" d="M 747.5872727272728 240.2 L 771.4127272727272 240.2" stroke-miterlimit="10"/></g><g transform="translate(-134,2) scale(1,1)"><path fill="none" stroke="#000000" d="M 759.5 254.2 L 742.9545454545455 277" stroke-miterlimit="10"/></g><g transform="translate(-134,2) scale(1,1)"><path fill="none" stroke="#000000" d="M 759.5 254.2 L 776.0454545454545 277" stroke-miterlimit="10"/></g><g transform="translate(-134,2) scale(1,1)"><g><path fill="none" stroke="none"/><text fill="#000000" stroke="none" font-family="Arial" font-size="13px" font-style="normal" font-weight="bold" text-decoration="none" x="718" y="297.5">Socket Server</text></g></g><g transform="translate(-134,2) scale(1,1)"><path fill="#ffffff" stroke="none" d="M 748.2490909090909 380.4 C 748.2490909090909 374.10395328 753.2862939229091 369 759.5 369 C 765.7137060770909 369 770.7509090909091 374.10395328 770.7509090909091 380.4 C 770.7509090909091 386.69604671999997 765.7137060770909 391.8 759.5 391.8 C 753.2862939229091 391.8 748.2490909090909 386.69604671999997 748.2490909090909 380.4 Z"/></g><g transform="translate(-134,2) scale(1,1)"><path fill="none" stroke="#000000" d="M 748.2490909090909 380.4 C 748.2490909090909 374.10395328 753.2862939229091 369 759.5 369 C 765.7137060770909 369 770.7509090909091 374.10395328 770.7509090909091 380.4 C 770.7509090909091 386.69604671999997 765.7137060770909 391.8 759.5 391.8 C 753.2862939229091 391.8 748.2490909090909 386.69604671999997 748.2490909090909 380.4 Z" stroke-miterlimit="10"/></g><g transform="translate(-134,2) scale(1,1)"><path fill="none" stroke="#000000" d="M 759.5 391.8 L 759.5 414.2" stroke-miterlimit="10"/></g><g transform="translate(-134,2) scale(1,1)"><path fill="none" stroke="#000000" d="M 747.5872727272728 400.2 L 771.4127272727272 400.2" stroke-miterlimit="10"/></g><g transform="translate(-134,2) scale(1,1)"><path fill="none" stroke="#000000" d="M 759.5 414.2 L 742.9545454545455 437" stroke-miterlimit="10"/></g><g transform="translate(-134,2) scale(1,1)"><path fill="none" stroke="#000000" d="M 759.5 414.2 L 776.0454545454545 437" stroke-miterlimit="10"/></g><g transform="translate(-134,2) scale(1,1)"><g><path fill="none" stroke="none"/><text fill="#000000" stroke="none" font-family="Arial" font-size="13px" font-style="normal" font-weight="bold" text-decoration="none" x="727.5" y="457.5">API Server</text></g></g><g transform="translate(-134,2) scale(1,1)"><path fill="#C0C0C0" stroke="none" d="M 391 474.5 C 391 450.4756112 442.93496319999997 431 507 431 C 571.0650368 431 623 450.4756112 623 474.5 C 623 498.5243888 571.0650368 518 507 518 C 442.93496319999997 518 391 498.5243888 391 474.5 Z" opacity="0.2"/></g><g transform="translate(-134,2) scale(1,1)"><path fill="#ffffff" stroke="none" d="M 384 467.5 C 384 443.4756112 435.93496319999997 424 500 424 C 564.0650368 424 616 443.4756112 616 467.5 C 616 491.5243888 564.0650368 511 500 511 C 435.93496319999997 511 384 491.5243888 384 467.5 Z"/></g><g transform="translate(-134,2) scale(1,1)"><path fill="none" stroke="#000000" d="M 384 467.5 C 384 443.4756112 435.93496319999997 424 500 424 C 564.0650368 424 616 443.4756112 616 467.5 C 616 491.5243888 564.0650368 511 500 511 C 435.93496319999997 511 384 491.5243888 384 467.5 Z" stroke-miterlimit="10"/></g><g transform="translate(-134,2) scale(1,1)"><g><path fill="none" stroke="none"/><text fill="#000000" stroke="none" font-family="Arial" font-size="13px" font-style="normal" font-weight="bold" text-decoration="none" x="438" y="474.5">Voir mon board perso</text></g></g><g transform="translate(-134,2) scale(1,1)"><path fill="none" stroke="#000000" d="M 218 556 L 383 504" stroke-miterlimit="10"/></g></g></svg>