<svg version="1.1" xmlns="http://www.w3.org/2000/svg" xmlns:xlink="http://www.w3.org/1999/xlink" width="492" height="682"><defs/><g><g transform="translate(-190,-54) scale(1,1)"><path fill="#ffffff" stroke="none" d="M 227.66 364.85 C 227.66 359.96227952000004 231.61780236799999 356 236.5 356 C 241.38219763200001 356 245.34 359.96227952000004 245.34 364.85 C 245.34 369.73772048 241.38219763200001 373.7 236.5 373.7 C 231.61780236799999 373.7 227.66 369.73772048 227.66 364.85 Z"/></g><g transform="translate(-190,-54) scale(1,1)"><path fill="none" stroke="#000000" d="M 227.66 364.85 C 227.66 359.96227952000004 231.61780236799999 356 236.5 356 C 241.38219763200001 356 245.34 359.96227952000004 245.34 364.85 C 245.34 369.73772048 241.38219763200001 373.7 236.5 373.7 C 231.61780236799999 373.7 227.66 369.73772048 227.66 364.85 Z" stroke-miterlimit="10"/></g><g transform="translate(-190,-54) scale(1,1)"><path fill="none" stroke="#000000" d="M 236.5 373.7 L 236.5 391.3" stroke-miterlimit="10"/></g><g transform="translate(-190,-54) scale(1,1)"><path fill="none" stroke="#000000" d="M 227.14 380.3 L 245.86 380.3" stroke-miterlimit="10"/></g><g transform="translate(-190,-54) scale(1,1)"><path fill="none" stroke="#000000" d="M 236.5 391.3 L 223.5 409" stroke-miterlimit="10"/></g><g transform="translate(-190,-54) scale(1,1)"><path fill="none" stroke="#000000" d="M 236.5 391.3 L 249.5 409" stroke-miterlimit="10"/></g><g transform="translate(-190,-54) scale(1,1)"><g><path fill="none" stroke="none"/><text fill="#000000" stroke="none" font-family="Arial" font-size="13px" font-style="normal" font-weight="bold" text-decoration="none" x="207.5" y="429.5">Utilisateur</text></g></g><g transform="translate(-190,-54) scale(1,1)"><path fill="#C0C0C0" stroke="none" d="M 363 114.5 C 363 90.4756112 414.93496319999997 71 479 71 C 543.0650368 71 595 90.4756112 595 114.5 C 595 138.5243888 543.0650368 158 479 158 C 414.93496319999997 158 363 138.5243888 363 114.5 Z" opacity="0.2"/></g><g transform="translate(-190,-54) scale(1,1)"><path fill="#ffffff" stroke="none" d="M 356 107.5 C 356 83.4756112 407.93496319999997 64 472 64 C 536.0650368 64 588 83.4756112 588 107.5 C 588 131.5243888 536.0650368 151 472 151 C 407.93496319999997 151 356 131.5243888 356 107.5 Z"/></g><g transform="translate(-190,-54) scale(1,1)"><path fill="none" stroke="#000000" d="M 356 107.5 C 356 83.4756112 407.93496319999997 64 472 64 C 536.0650368 64 588 83.4756112 588 107.5 C 588 131.5243888 536.0650368 151 472 151 C 407.93496319999997 151 356 131.5243888 356 107.5 Z" stroke-miterlimit="10"/></g><g transform="translate(-190,-54) scale(1,1)"><g><path fill="none" stroke="none"/><text fill="#000000" stroke="none" font-family="Arial" font-size="13px" font-style="normal" font-weight="bold" text-decoration="none" x="434.5" y="114.5">CRUD Listes</text></g></g><g transform="translate(-190,-54) scale(1,1)"><path fill="#C0C0C0" stroke="none" d="M 415 229.5 C 415 205.4756112 466.93496319999997 186 531 186 C 595.0650368 186 647 205.4756112 647 229.5 C 647 253.5243888 595.0650368 273 531 273 C 466.93496319999997 273 415 253.5243888 415 229.5 Z" opacity="0.2"/></g><g transform="translate(-190,-54) scale(1,1)"><path fill="#ffffff" stroke="none" d="M 408 222.5 C 408 198.4756112 459.93496319999997 179 524 179 C 588.0650368 179 640 198.4756112 640 222.5 C 640 246.5243888 588.0650368 266 524 266 C 459.93496319999997 266 408 246.5243888 408 222.5 Z"/></g><g transform="translate(-190,-54) scale(1,1)"><path fill="none" stroke="#000000" d="M 408 222.5 C 408 198.4756112 459.93496319999997 179 524 179 C 588.0650368 179 640 198.4756112 640 222.5 C 640 246.5243888 588.0650368 266 524 266 C 459.93496319999997 266 408 246.5243888 408 222.5 Z" stroke-miterlimit="10"/></g><g transform="translate(-190,-54) scale(1,1)"><g><path fill="none" stroke="none"/><text fill="#000000" stroke="none" font-family="Arial" font-size="13px" font-style="normal" font-weight="bold" text-decoration="none" x="485" y="229.5">CRUD Cartes</text></g></g><g transform="translate(-190,-54) scale(1,1)"><path fill="#C0C0C0" stroke="none" d="M 363 689.5 C 363 665.4756112 414.93496319999997 646 479 646 C 543.0650368 646 595 665.4756112 595 689.5 C 595 713.5243888 543.0650368 733 479 733 C 414.93496319999997 733 363 713.5243888 363 689.5 Z" opacity="0.2"/></g><g transform="translate(-190,-54) scale(1,1)"><path fill="#ffffff" stroke="none" d="M 356 682.5 C 356 658.4756112 407.93496319999997 639 472 639 C 536.0650368 639 588 658.4756112 588 682.5 C 588 706.5243888 536.0650368 726 472 726 C 407.93496319999997 726 356 706.5243888 356 682.5 Z"/></g><g transform="translate(-190,-54) scale(1,1)"><path fill="none" stroke="#000000" d="M 356 682.5 C 356 658.4756112 407.93496319999997 639 472 639 C 536.0650368 639 588 658.4756112 588 682.5 C 588 706.5243888 536.0650368 726 472 726 C 407.93496319999997 726 356 706.5243888 356 682.5 Z" stroke-miterlimit="10"/></g><g transform="translate(-190,-54) scale(1,1)"><g><path fill="none" stroke="none"/><text fill="#000000" stroke="none" font-family="Arial" font-size="13px" font-style="normal" font-weight="bold" text-decoration="none" x="403.5" y="683">Supprimer un utilisateur</text><text fill="#000000" stroke="none" font-family="Arial" font-size="13px" font-style="normal" font-weight="bold" text-decoration="none" x="440.5" y="696">d'une carte</text></g></g><g transform="translate(-190,-54) scale(1,1)"><path fill="#C0C0C0" stroke="none" d="M 415 574.5 C 415 550.4756112 466.93496319999997 531 531 531 C 595.0650368 531 647 550.4756112 647 574.5 C 647 598.5243888 595.0650368 618 531 618 C 466.93496319999997 618 415 598.5243888 415 574.5 Z" opacity="0.2"/></g><g transform="translate(-190,-54) scale(1,1)"><path fill="#ffffff" stroke="none" d="M 408 567.5 C 408 543.4756112 459.93496319999997 524 524 524 C 588.0650368 524 640 543.4756112 640 567.5 C 640 591.5243888 588.0650368 611 524 611 C 459.93496319999997 611 408 591.5243888 408 567.5 Z"/></g><g transform="translate(-190,-54) scale(1,1)"><path fill="none" stroke="#000000" d="M 408 567.5 C 408 543.4756112 459.93496319999997 524 524 524 C 588.0650368 524 640 543.4756112 640 567.5 C 640 591.5243888 588.0650368 611 524 611 C 459.93496319999997 611 408 591.5243888 408 567.5 Z" stroke-miterlimit="10"/></g><g transform="translate(-190,-54) scale(1,1)"><g><path fill="none" stroke="none"/><text fill="#000000" stroke="none" font-family="Arial" font-size="13px" font-style="normal" font-weight="bold" text-decoration="none" x="459" y="568">Ajouter un utilisateur à</text><text fill="#000000" stroke="none" font-family="Arial" font-size="13px" font-style="normal" font-weight="bold" text-decoration="none" x="497" y="581">une carte</text></g></g><g transform="translate(-190,-54) scale(1,1)"><path fill="#C0C0C0" stroke="none" d="M 447 459.5 C 447 435.4756112 498.93496319999997 416 563 416 C 627.0650368 416 679 435.4756112 679 459.5 C 679 483.5243888 627.0650368 503 563 503 C 498.93496319999997 503 447 483.5243888 447 459.5 Z" opacity="0.2"/></g><g transform="translate(-190,-54) scale(1,1)"><path fill="#ffffff" stroke="none" d="M 440 452.5 C 440 428.4756112 491.93496319999997 409 556 409 C 620.0650368 409 672 428.4756112 672 452.5 C 672 476.5243888 620.0650368 496 556 496 C 491.93496319999997 496 440 476.5243888 440 452.5 Z"/></g><g transform="translate(-190,-54) scale(1,1)"><path fill="none" stroke="#000000" d="M 440 452.5 C 440 428.4756112 491.93496319999997 409 556 409 C 620.0650368 409 672 428.4756112 672 452.5 C 672 476.5243888 620.0650368 496 556 496 C 491.93496319999997 496 440 476.5243888 440 452.5 Z" stroke-miterlimit="10"/></g><g transform="translate(-190,-54) scale(1,1)"><g><path fill="none" stroke="none"/><text fill="#000000" stroke="none" font-family="Arial" font-size="13px" font-style="normal" font-weight="bold" text-decoration="none" x="501.5" y="459.5">Déplacer une carte</text></g></g><g transform="translate(-190,-54) scale(1,1)"><path fill="#C0C0C0" stroke="none" d="M 447 344.5 C 447 320.4756112 498.93496319999997 301 563 301 C 627.0650368 301 679 320.4756112 679 344.5 C 679 368.5243888 627.0650368 388 563 388 C 498.93496319999997 388 447 368.5243888 447 344.5 Z" opacity="0.2"/></g><g transform="translate(-190,-54) scale(1,1)"><path fill="#ffffff" stroke="none" d="M 440 337.5 C 440 313.4756112 491.93496319999997 294 556 294 C 620.0650368 294 672 313.4756112 672 337.5 C 672 361.5243888 620.0650368 381 556 381 C 491.93496319999997 381 440 361.5243888 440 337.5 Z"/></g><g transform="translate(-190,-54) scale(1,1)"><path fill="none" stroke="#000000" d="M 440 337.5 C 440 313.4756112 491.93496319999997 294 556 294 C 620.0650368 294 672 313.4756112 672 337.5 C 672 361.5243888 620.0650368 381 556 381 C 491.93496319999997 381 440 361.5243888 440 337.5 Z" stroke-miterlimit="10"/></g><g transform="translate(-190,-54) scale(1,1)"><g><path fill="none" stroke="none"/><text fill="#000000" stroke="none" font-family="Arial" font-size="13px" font-style="normal" font-weight="bold" text-decoration="none" x="504.5" y="344.5">CRUD utilisateurs</text></g></g><g transform="translate(-190,-54) scale(1,1)"><path fill="none" stroke="#000000" d="M 270 354 L 435 152" stroke-miterlimit="10"/></g><g transform="translate(-190,-54) scale(1,1)"><path fill="none" stroke="#000000" d="M 274 372 L 449 267" stroke-miterlimit="10"/></g><g transform="translate(-190,-54) scale(1,1)"><path fill="none" stroke="#000000" d="M 274 388 L 439 358" stroke-miterlimit="10"/></g><g transform="translate(-190,-54) scale(1,1)"><path fill="none" stroke="#000000" d="M 274 402 L 439 431" stroke-miterlimit="10"/></g><g transform="translate(-190,-54) scale(1,1)"><path fill="none" stroke="#000000" d="M 274 418 L 450 523" stroke-miterlimit="10"/></g><g transform="translate(-190,-54) scale(1,1)"><path fill="none" stroke="#000000" d="M 270 436 L 436 638" stroke-miterlimit="10"/></g></g></svg>